# xmcd
#
# Track frame offsets:
#	150
#	19427
#	37375
#	57032
#	75077
#	93172
#	110010
#	131327
#	161252
#	179922
#
# Disc length: 2787 seconds
#
# Revision: 2
# Processed by: cddbd v1.4PL0 Copyright (c) Steve Scherf et al.
# Submitted via: audiograbber 1.81.03
#
DISCID=7c0ae10a
DTITLE=Various Artist - A`Celebration of blues - The Great Singers
DYEAR=1997
DGENRE=
TTITLE0=Coco`Montoya - Seven Desires
TTITLE1=Luther`Allison - Gave It All
TTITLE2=Maria`Muldaur - Don't You Feel My Leg
TTITLE3=Frankie Lee - What's The Matter Baby
TTITLE4=Duke`Robillard - I Tried
TTITLE5=Nappy Brown - You Mean More To Me Than Gold
TTITLE6=Caron`Fran]p[James 'thunderbird`Davis - Bring It On Home To Me/old Folk
TTITLE6=s Jam
TTITLE7=Soloman`Burke - No Nights By Myself
TTITLE8=Koko`Taylor - Spellbound
TTITLE9=Tommy`Castro - How Long Must I Cry
EXTD=
EXTT0=
EXTT1=
EXTT2=
EXTT3=
EXTT4=
EXTT5=
EXTT6=
EXTT7=
EXTT8=
EXTT9=
PLAYORDER=
